<svg width="462" height="140" viewBox="0 0 462 140" fill="none" xmlns="http://www.w3.org/2000/svg">
<rect x="113" y="10" width="235" height="11" fill="black"/>
<rect width="261" height="18" transform="matrix(1 0 0 -1 100 137)" fill="black"/>
<path d="M10 71.4954C10 66.9558 13.2066 63.0483 17.659 62.1624L49.9415 55.7393C55.7232 54.589 61.6637 54.478 67.4843 55.4116L119.076 63.6863L128.806 64.7656C166.962 68.9981 205.488 68.6357 243.557 63.6863L245.937 63.241C278.563 57.136 312.052 57.2871 344.622 63.6863L391.547 70.3222C395.371 70.8629 399.251 70.8629 403.074 70.3222L438.577 65.3016C444.609 64.4486 450 69.1307 450 75.2224C450 80.1615 446.401 84.3638 441.521 85.123L405.41 90.7402C400.043 91.5751 394.579 91.5751 389.212 90.7402L344.622 83.8039C312.257 75.4883 278.339 75.293 245.88 83.2356L243.557 83.8039C205.516 89.2442 166.924 89.6423 128.779 84.9879L119.076 83.8039L66.2481 72.7239C61.2727 71.6803 56.1232 71.8034 51.2033 73.0835L21.912 80.7046C15.8843 82.2729 10 77.7237 10 71.4954Z" fill="black"/>
<g filter="url(#filter0_d_475_2)">
<path d="M15.2 68.76L26.8 85H4.4V57.16H26.8L15.2 68.76ZM14.16 69.8L5.88 78.08V83.52H23.96L14.16 69.8ZM64.5294 57.16H88.2894L77.1694 73.6V85H75.6894V73.6L64.5294 57.16ZM126.419 68C126.419 65.92 126.939 63.9867 127.979 62.2C129.019 60.4133 130.419 59 132.179 57.96C133.965 56.92 135.912 56.4 138.019 56.4C140.125 56.4 142.059 56.92 143.819 57.96C145.605 59 147.019 60.4133 148.059 62.2C149.099 63.9867 149.619 65.92 149.619 68V74.16C149.619 76.24 149.099 78.1733 148.059 79.96C147.019 81.7467 145.605 83.16 143.819 84.2C142.059 85.24 140.125 85.76 138.019 85.76C135.912 85.76 133.965 85.24 132.179 84.2C130.419 83.16 129.019 81.7467 127.979 79.96C126.939 78.1733 126.419 76.24 126.419 74.16V68ZM133.699 74.16C133.699 75.44 134.099 76.5333 134.899 77.44C135.699 78.3467 136.739 78.8 138.019 78.8C139.272 78.8 140.299 78.3467 141.099 77.44C141.899 76.5333 142.299 75.44 142.299 74.16V67.96C142.299 66.6533 141.899 65.56 141.099 64.68C140.299 63.8 139.272 63.36 138.019 63.36C136.739 63.36 135.699 63.8 134.899 64.68C134.099 65.56 133.699 66.6533 133.699 67.96V74.16ZM200.028 68.76L211.628 85H189.228V57.16H211.628L200.028 68.76ZM198.988 69.8L190.708 78.08V83.52H208.788L198.988 69.8ZM261.238 85.6C259.211 85.6 257.331 85.0933 255.598 84.08C253.891 83.0667 252.531 81.7067 251.518 80C250.504 78.2667 249.998 76.3867 249.998 74.36V57.16H272.478V74.36C272.478 76.3867 271.971 78.2667 270.958 80C269.944 81.7067 268.571 83.0667 266.838 84.08C265.131 85.0933 263.264 85.6 261.238 85.6ZM311.607 57.12H313.207L322.927 74.32L332.607 57.12H334.087V84.96H311.607V57.12ZM313.087 83.52H332.607V60.12L323.607 75.96H322.207L313.087 59.88V83.52ZM374.456 57.16H394.736V64.2H381.736V67.72H392.536V74.4H381.736V77.96H394.736V85H374.456V57.16ZM435.226 84.96V57.12H436.786L456.226 76.04V57.12H457.706V84.96H435.226Z" fill="white"/>
</g>
<g style="mix-blend-mode:hard-light" filter="url(#filter1_d_475_2)">
<path d="M125.992 13.584L126.172 15.474C125.974 15.51 125.632 15.6 125.29 15.708L123.4 16.32L123.688 19.704C123.76 20.244 123.832 20.892 123.904 21.432L122.392 21.846C122.356 21.252 122.338 20.64 122.284 20.1L122.014 16.77C121.15 17.058 120.376 17.31 119.98 17.454C119.602 17.598 119.35 17.688 119.134 17.796L118.936 15.852C119.152 15.834 119.548 15.744 119.8 15.672C120.214 15.564 121.006 15.312 121.87 15.042L121.618 12C120.88 12.216 120.232 12.432 119.944 12.54C119.638 12.648 119.404 12.756 119.17 12.864L118.99 10.866C119.242 10.848 119.476 10.812 119.764 10.758C120.088 10.686 120.736 10.506 121.474 10.272L121.33 8.688C121.276 8.22 121.24 7.788 121.168 7.392L122.644 7.014C122.662 7.356 122.68 7.914 122.716 8.328L122.842 9.858C123.526 9.642 124.12 9.444 124.426 9.318C124.696 9.21 124.984 9.102 125.164 8.994L125.344 10.866C125.182 10.902 124.858 10.992 124.606 11.064L122.986 11.568L123.256 14.592C124.012 14.358 124.714 14.106 125.128 13.962C125.488 13.836 125.758 13.692 125.992 13.584ZM179.038 12.738V20.658C179.038 20.964 179.056 21.63 179.074 21.9H177.688C177.706 21.738 177.706 21.432 177.724 21.126H174.736C174.466 21.126 174.07 21.162 173.926 21.18V19.38C174.07 19.398 174.412 19.434 174.736 19.434H177.724V16.968H175.204C174.88 16.968 174.43 17.004 174.25 17.022V15.312C174.448 15.348 174.88 15.384 175.204 15.384H177.724V13.17H175.096C174.826 13.17 174.214 13.206 174.016 13.224V11.496C174.214 11.55 174.826 11.586 175.096 11.586H178.408C178.606 11.586 178.948 11.568 179.074 11.568C179.056 11.766 179.038 12.342 179.038 12.738ZM233.326 9.21L234.064 10.128C233.992 10.434 233.884 10.902 233.812 11.244C233.506 12.99 233.056 14.988 232.282 16.896C231.436 18.894 230.248 20.658 228.898 21.846L227.674 20.424C229.096 19.38 230.266 17.742 231.076 15.888C231.76 14.34 232.21 12.558 232.426 11.01H230.212C229.672 12.45 228.97 13.89 228.124 15.096L226.864 13.926C228.322 12.018 229.132 9.804 229.51 8.256C229.618 7.878 229.762 7.14 229.798 6.618L231.346 7.284C231.184 7.842 231.04 8.4 230.95 8.724C230.896 8.94 230.824 9.174 230.752 9.39H232.552C232.822 9.39 233.164 9.336 233.326 9.21ZM287.902 17.58L287.092 19.326C286.516 18.246 285.886 17.256 285.202 16.23C284.41 18.12 283.186 20.316 281.764 21.828L280.702 20.316C282.088 18.966 283.24 16.878 284.122 14.7C283.348 13.674 282.268 12.378 281.602 11.748L282.358 10.11C282.934 10.776 283.96 11.946 284.752 12.936C285.184 11.478 285.508 9.876 285.724 8.58C285.796 8.166 285.85 7.644 285.886 7.212L287.434 7.968C287.308 8.328 287.182 8.886 287.092 9.282C286.822 10.596 286.426 12.576 285.85 14.43C286.588 15.456 287.344 16.572 287.902 17.58ZM335.872 7.752C336.574 8.544 337.924 10.416 338.41 11.424L337.546 12.882C337.078 11.928 335.782 9.966 335.062 9.156L335.872 7.752ZM335.008 19.542C336.43 19.056 337.51 18.102 338.356 17.04C339.742 15.258 340.66 12.558 341.164 10.254L342.226 12.216C341.614 14.538 340.534 17.004 339.148 18.732C338.23 19.848 337.078 20.838 335.692 21.414L335.008 19.542Z" fill="white"/>
</g>
<g style="mix-blend-mode:hard-light" filter="url(#filter2_d_475_2)">
<path d="M106.84 122.72C107.005 123.035 107.14 123.215 107.41 123.425C107.545 123.545 107.755 123.605 108.025 123.605C108.295 123.605 109.24 123.395 110.335 123.08C110.95 122.915 111.31 122.795 111.505 122.705C111.595 122.66 111.595 122.66 111.805 122.48C111.88 122.42 111.985 122.375 112.075 122.375C112.51 122.375 113.44 123.335 113.44 123.785C113.44 123.95 113.395 123.995 113.065 124.13C112.855 124.235 112.21 124.715 111.085 125.645C109.945 126.59 108.265 127.895 106.735 129.035C108.37 128.405 109.54 128.015 112.57 127.145C113.185 126.965 113.62 126.845 113.965 126.725C114.34 126.59 114.43 126.575 114.58 126.575C114.775 126.575 115.105 126.725 115.36 126.935C115.555 127.1 115.615 127.205 115.615 127.37C115.615 127.52 115.495 127.64 115.315 127.655C115.195 127.685 115.18 127.685 114.355 127.73C113.53 127.76 112.45 128.075 111.685 128.48C110.41 129.155 109.645 130.205 109.645 131.255C109.645 132.125 110.2 132.815 111.13 133.13C111.52 133.265 111.76 133.295 112.45 133.295C112.555 133.295 112.66 133.295 112.735 133.28C112.855 133.265 112.945 133.25 112.975 133.25C113.305 133.25 113.86 133.79 113.86 134.105C113.86 134.39 113.62 134.51 113.095 134.51C110.71 134.51 109.015 133.25 109.015 131.51C109.015 130.76 109.33 130.025 109.945 129.38C110.41 128.87 110.815 128.57 111.64 128.09C109.915 128.57 107.17 129.68 106.27 130.265C106.06 130.4 105.985 130.43 105.895 130.43C105.565 130.43 105.055 129.935 105.055 129.635C105.055 129.425 105.16 129.335 105.46 129.245C106.24 129.005 107.605 127.955 109.675 125.96C111.34 124.385 112.075 123.56 112.075 123.32C112.075 123.2 111.985 123.125 111.865 123.125C111.7 123.125 111.55 123.17 110.23 123.695C109.36 124.04 108.835 124.28 108.415 124.535C108.205 124.655 108.1 124.7 107.965 124.7C107.665 124.7 107.32 124.4 107.035 123.875C106.855 123.575 106.75 123.23 106.75 123.005C106.75 122.93 106.765 122.855 106.84 122.72ZM140.485 133.955L140.38 133.7C142 133.22 143.035 132.605 143.89 131.615C144.775 130.61 145.225 129.38 145.225 128C145.225 126.545 144.64 125.39 143.53 124.685C142.87 124.25 141.88 123.995 140.935 123.995C140.755 123.995 140.65 123.995 140.41 124.025C140.77 124.55 140.875 124.835 140.875 125.27C140.875 126.44 140.035 128.63 138.895 130.46C137.95 131.96 137.215 132.695 136.66 132.695C136.405 132.695 136.165 132.575 136 132.38C135.865 132.2 135.835 132.14 135.58 131.42C135.445 131.03 135.355 130.85 134.92 130.01C134.68 129.53 134.575 129.125 134.575 128.645C134.575 127.7 135.085 126.59 135.925 125.675C137.14 124.385 139.12 123.575 141.085 123.575C142.6 123.575 143.995 124.07 144.955 124.955C145.915 125.84 146.395 127.025 146.395 128.48C146.395 130.355 145.3 132.02 143.41 133.025C142.54 133.49 141.76 133.73 140.485 133.955ZM140.095 124.085C137.485 124.55 135.445 126.725 135.445 129.035C135.445 129.755 135.67 130.49 136.045 131.015C136.255 131.285 136.45 131.45 136.615 131.45C136.945 131.45 137.665 130.64 138.4 129.47C139.51 127.7 140.305 125.765 140.305 124.835C140.305 124.61 140.26 124.46 140.095 124.085ZM166.615 126.89H174.94C175.27 126.515 175.375 126.41 175.735 126.035C176.335 126.41 176.515 126.53 177.055 126.935C177.19 127.025 177.235 127.085 177.235 127.145C177.235 127.265 177.13 127.355 176.725 127.55C176.605 129.68 176.545 130.85 176.53 131.045C176.335 133.385 176.065 134.225 175.39 134.645C174.985 134.9 174.265 135.08 173.65 135.08C173.485 135.08 173.47 135.05 173.44 134.825C173.365 134.09 172.825 133.79 170.98 133.415V133.22C172.03 133.295 173.35 133.355 173.86 133.355C174.37 133.355 174.55 133.205 174.655 132.68C174.895 131.45 175.015 129.89 175.06 127.205H166.585C166.48 128.81 166.3 129.92 166 130.895C165.52 132.455 164.86 133.49 163.42 134.945L163.27 134.825C164.005 133.4 164.365 132.26 164.635 130.55C164.86 129.065 164.95 127.43 164.95 124.565C164.95 122.9 164.935 122.27 164.86 121.325C165.73 121.7 166 121.82 166.87 122.27H173.95C174.325 121.865 174.43 121.73 174.805 121.325C175.375 121.7 175.555 121.835 176.11 122.195C176.23 122.285 176.275 122.345 176.275 122.42C176.275 122.54 176.155 122.645 175.795 122.84C175.795 124.19 175.795 124.19 175.84 125.465C175.825 125.6 175.81 125.66 175.75 125.72C175.6 125.84 175.18 125.9 174.58 125.9C174.22 125.9 174.145 125.855 174.115 125.645V125.21H166.66C166.63 126.44 166.63 126.44 166.615 126.89ZM174.115 124.895V122.585H166.705C166.705 123.035 166.705 123.035 166.66 124.895H174.115ZM169.09 131.84V132.71C169.075 132.83 169.045 132.89 168.97 132.935C168.82 133.01 168.37 133.07 167.89 133.07C167.545 133.07 167.455 133.01 167.455 132.77C167.5 132.035 167.515 131.345 167.515 130.37C167.515 129.035 167.5 128.345 167.455 127.865C168.25 128.21 168.475 128.33 169.225 128.75H171.55C171.88 128.405 171.985 128.3 172.315 127.94C172.87 128.285 173.035 128.39 173.545 128.735C173.665 128.825 173.71 128.885 173.71 128.93C173.71 129.05 173.62 129.125 173.23 129.335C173.23 130.76 173.23 130.76 173.26 132.23C173.245 132.35 173.215 132.425 173.155 132.47C173.02 132.56 172.6 132.62 172.105 132.62C171.76 132.62 171.67 132.575 171.655 132.35V131.84H169.09ZM169.09 129.065V131.525H171.655V129.065H169.09ZM207.415 122.645H201.46C200.41 124.175 200.23 124.415 199.315 125.39H204.655C205.03 124.955 205.15 124.835 205.54 124.415C206.14 124.835 206.32 124.97 206.89 125.39C207.01 125.48 207.055 125.555 207.055 125.615C207.055 125.735 206.95 125.84 206.53 126.11C206.53 132.635 206.53 132.635 206.59 134.705C206.59 134.84 206.575 134.9 206.545 134.96C206.455 135.095 205.975 135.185 205.33 135.185C204.94 135.185 204.85 135.125 204.85 134.885V134.195H196.105V134.81C196.105 134.975 196.06 135.05 195.97 135.11C195.82 135.185 195.43 135.245 194.95 135.245C194.485 135.245 194.38 135.17 194.38 134.855C194.38 134.855 194.38 134.84 194.38 134.825C194.455 131.42 194.47 130.55 194.47 128.36C194.47 125.915 194.455 125.33 194.38 124.415C195.235 124.79 195.49 124.925 196.27 125.39H198.565C198.82 124.46 198.97 123.68 199.09 122.645H195.04C194.515 122.645 194.02 122.675 193.69 122.72L193.585 122.195C194.02 122.3 194.44 122.33 195.04 122.33H204.46L205.63 120.995C206.455 121.58 206.71 121.775 207.505 122.42C207.565 122.48 207.595 122.525 207.595 122.555C207.595 122.615 207.52 122.645 207.415 122.645ZM199.36 128.075H201.445V125.705H199.36V128.075ZM199.36 128.39V130.895H201.445V128.39H199.36ZM199.36 131.21V133.88H201.445V131.21H199.36ZM197.785 125.705H196.105V133.88H197.785V125.705ZM203.02 125.705V133.88H204.85V125.705H203.02ZM227.53 128.405L227.74 128.48C227.71 128.615 227.485 129.56 227.065 131.3C226.855 132.185 226.81 132.425 226.81 132.89C226.81 133.325 226.795 133.445 226.765 133.535C226.705 133.7 226.57 133.79 226.405 133.79C226.15 133.79 225.925 133.58 225.76 133.175C225.43 132.395 225.235 131.18 225.235 129.98C225.235 129.53 225.28 128.975 225.355 128.375C225.46 127.505 225.46 127.505 225.88 125.54C226.03 124.835 226.09 124.46 226.09 124.145C226.09 123.65 225.97 123.275 225.67 122.735C226 122.75 226.27 122.945 226.675 123.47C227.05 123.935 227.23 124.325 227.23 124.655C227.23 124.895 227.215 124.955 226.915 125.555C226.615 126.185 226.255 127.235 226.105 127.94C225.97 128.51 225.91 129.155 225.91 129.8C225.91 130.625 225.985 131.15 226.195 131.78C226.45 131.255 226.57 130.955 226.735 130.505L227.53 128.405ZM229.465 124.64L229.6 124.46C230.125 124.775 230.455 124.865 230.995 124.865C231.925 124.865 233.38 124.535 234.01 124.19C234.205 124.085 234.235 124.07 234.34 124.07C234.46 124.07 234.655 124.145 234.865 124.28C235.18 124.46 235.33 124.64 235.33 124.835C235.33 125.03 235.225 125.12 234.91 125.18C233.92 125.33 233.365 125.465 232.78 125.705C232.315 125.9 231.445 126.38 230.845 126.77L230.695 126.62C231.37 126.05 231.88 125.63 232.12 125.45C231.805 125.465 231.64 125.48 231.505 125.48C230.665 125.48 230.11 125.255 229.465 124.64ZM229.375 129.17L229.63 129.23C229.6 129.53 229.585 129.665 229.585 129.86C229.585 131.51 230.53 132.185 232.855 132.185C233.29 132.185 233.725 132.155 234.13 132.08C234.445 132.035 234.445 132.035 234.925 131.84C235.015 131.81 235.09 131.795 235.15 131.795C235.54 131.795 236.095 132.32 236.095 132.68C236.095 132.86 235.975 132.98 235.765 133.055C235.45 133.16 234.73 133.22 233.89 133.22C232.015 133.22 230.68 132.905 230.005 132.305C229.465 131.81 229.195 131.18 229.195 130.355C229.195 129.98 229.24 129.65 229.375 129.17ZM261.34 125.375H263.53C263.875 124.985 263.995 124.88 264.355 124.505C264.94 124.895 265.105 125.015 265.645 125.42C265.75 125.51 265.795 125.57 265.795 125.63C265.795 125.765 265.675 125.87 265.27 126.065C265.27 127.145 265.27 127.67 265.27 128.57C265.27 129.185 265.285 130.595 265.33 132.77C265.3 133.07 265.105 133.13 264.175 133.13C263.725 133.13 263.665 133.085 263.665 132.83V132.29H259.405V132.935C259.405 133.22 259.24 133.265 258.34 133.265C257.83 133.265 257.755 133.22 257.755 132.965C257.785 131.51 257.8 130.535 257.8 127.955C257.8 126.5 257.785 125.615 257.74 124.505C258.52 124.85 258.745 124.97 259.495 125.375H259.69C259.93 124.355 259.945 124.28 260.095 123.545H255.1C254.635 123.545 254.38 123.575 253.975 123.65L253.9 123.095C254.35 123.2 254.65 123.23 255.085 123.23H260.155C260.29 122.48 260.335 122.15 260.38 121.4C260.845 121.46 261.205 121.505 261.43 121.535C262.525 121.685 262.735 121.745 262.735 121.925C262.735 122.075 262.57 122.15 262.03 122.3C261.94 122.765 261.91 122.855 261.835 123.23H264.58C265.075 122.645 265.225 122.48 265.705 121.94C266.47 122.51 266.695 122.69 267.43 123.32C267.49 123.38 267.505 123.41 267.505 123.455C267.505 123.515 267.445 123.545 267.34 123.545H261.76C261.7 123.815 261.655 124.01 261.625 124.145C261.49 124.82 261.475 124.85 261.34 125.375ZM259.405 127.4H263.665V125.69H259.405V127.4ZM263.665 127.715H259.405V129.605H263.665V127.715ZM263.665 129.92H259.405V131.975H263.665V129.92ZM256.255 134.3V134.885C256.24 135.2 256.09 135.26 255.145 135.26C254.605 135.26 254.515 135.215 254.515 134.915C254.56 132.755 254.575 131.27 254.575 129.695C254.575 127.175 254.56 126.23 254.5 125.285C256.36 125.465 256.495 125.48 256.675 125.555C256.78 125.6 256.84 125.66 256.84 125.75C256.84 125.87 256.735 125.945 256.255 126.125V133.985H264.685L265.93 132.71C266.65 133.295 266.86 133.475 267.52 134.09C267.565 134.135 267.595 134.18 267.595 134.21C267.595 134.27 267.535 134.3 267.46 134.3H256.255ZM297.415 122.645H291.46C290.41 124.175 290.23 124.415 289.315 125.39H294.655C295.03 124.955 295.15 124.835 295.54 124.415C296.14 124.835 296.32 124.97 296.89 125.39C297.01 125.48 297.055 125.555 297.055 125.615C297.055 125.735 296.95 125.84 296.53 126.11C296.53 132.635 296.53 132.635 296.59 134.705C296.59 134.84 296.575 134.9 296.545 134.96C296.455 135.095 295.975 135.185 295.33 135.185C294.94 135.185 294.85 135.125 294.85 134.885V134.195H286.105V134.81C286.105 134.975 286.06 135.05 285.97 135.11C285.82 135.185 285.43 135.245 284.95 135.245C284.485 135.245 284.38 135.17 284.38 134.855C284.38 134.855 284.38 134.84 284.38 134.825C284.455 131.42 284.47 130.55 284.47 128.36C284.47 125.915 284.455 125.33 284.38 124.415C285.235 124.79 285.49 124.925 286.27 125.39H288.565C288.82 124.46 288.97 123.68 289.09 122.645H285.04C284.515 122.645 284.02 122.675 283.69 122.72L283.585 122.195C284.02 122.3 284.44 122.33 285.04 122.33H294.46L295.63 120.995C296.455 121.58 296.71 121.775 297.505 122.42C297.565 122.48 297.595 122.525 297.595 122.555C297.595 122.615 297.52 122.645 297.415 122.645ZM289.36 128.075H291.445V125.705H289.36V128.075ZM289.36 128.39V130.895H291.445V128.39H289.36ZM289.36 131.21V133.88H291.445V131.21H289.36ZM287.785 125.705H286.105V133.88H287.785V125.705ZM293.02 125.705V133.88H294.85V125.705H293.02ZM319.405 128.93L319.525 128.78C320.935 129.575 321.46 129.845 321.61 129.845C321.865 129.845 322.075 128.855 322.285 126.815C320.815 126.995 319.555 127.28 318.25 127.715C318.205 128.45 318.19 128.9 318.19 129.53C318.19 131.465 318.34 132.095 318.91 132.485C319.3 132.77 319.87 132.875 320.92 132.875C321.775 132.875 322.795 132.725 323.47 132.515C323.755 132.41 323.77 132.41 323.86 132.41C324.25 132.41 324.85 132.875 324.85 133.175C324.85 133.355 324.76 133.475 324.58 133.535C324.25 133.67 322.945 133.79 321.925 133.79C319.705 133.79 318.775 133.49 318.115 132.56C317.785 132.11 317.62 131.435 317.53 130.22C317.5 129.77 317.485 129.275 317.455 127.985C316.63 128.24 315.895 128.54 315.415 128.81C315.22 128.915 315.145 128.945 315.025 128.945C314.44 128.945 313.495 127.985 313.495 127.4C313.495 127.34 313.51 127.265 313.525 127.175C313.87 127.67 314.275 127.895 314.815 127.895C315.295 127.895 315.715 127.805 317.455 127.325C317.44 126.56 317.38 125.615 317.305 125.285C317.215 124.805 316.885 124.505 316.12 124.205C316.27 124.1 316.345 124.07 316.51 124.07C316.87 124.07 317.47 124.25 317.95 124.49C318.31 124.655 318.505 124.91 318.505 125.195C318.505 125.285 318.505 125.285 318.43 125.57C318.4 125.69 318.37 125.945 318.355 126.14C318.295 126.935 318.295 126.935 318.265 127.115C320.11 126.665 320.635 126.56 322.345 126.245C322.39 125.705 322.42 124.805 322.42 124.115C322.42 123.485 322.3 123.185 321.925 122.885C321.67 122.675 321.475 122.585 321.16 122.495C321.31 122.36 321.37 122.33 321.565 122.33C321.955 122.33 322.495 122.48 323.035 122.735C323.425 122.93 323.635 123.155 323.635 123.425C323.635 123.56 323.635 123.56 323.5 123.905C323.38 124.25 323.26 124.925 323.125 126.095C323.335 126.065 323.335 126.065 324.01 125.93C324.295 125.87 324.61 125.795 325 125.66C325.3 125.555 325.36 125.54 325.465 125.54C325.675 125.54 326.095 125.69 326.485 125.915C326.815 126.095 326.905 126.185 326.905 126.35C326.905 126.515 326.74 126.65 326.53 126.65C326.455 126.65 326.335 126.65 326.2 126.635C326.035 126.62 325.135 126.59 324.955 126.59C324.76 126.59 324.13 126.635 323.05 126.725C322.9 128.315 322.75 129.365 322.615 129.815C322.39 130.55 321.94 131.03 321.49 131.03C321.295 131.03 321.205 130.955 321.115 130.655C321.055 130.46 320.89 130.25 320.59 129.965C320.5 129.89 320.5 129.89 319.87 129.335C319.675 129.17 319.66 129.17 319.405 128.93ZM348.535 122.495C348.775 122.315 348.895 122.27 349.225 122.27C349.585 122.27 349.99 122.33 350.425 122.45C350.935 122.585 351.175 122.795 351.175 123.095C351.175 123.215 351.175 123.215 351.055 123.515C350.89 123.98 350.755 124.91 350.755 125.675C350.755 125.735 350.755 125.84 350.755 125.96C350.905 126.095 350.98 126.125 351.16 126.125C351.73 126.125 352.885 125.675 353.44 125.24C353.605 125.12 353.68 125.075 353.77 125.075C353.905 125.075 354.205 125.165 354.415 125.27C354.655 125.405 354.73 125.495 354.73 125.63C354.73 125.855 354.535 125.975 353.845 126.23C353.035 126.53 352.315 126.695 351.76 126.695C351.325 126.695 351.085 126.605 350.755 126.32C350.755 126.605 350.755 126.845 350.755 126.98C350.755 128.165 350.83 129.92 350.92 130.895C352.09 131.09 353.2 131.48 354.085 131.99C354.73 132.35 355.015 132.755 355.015 133.28C355.015 133.64 354.91 133.85 354.715 133.85C354.61 133.85 354.52 133.79 354.355 133.655C353.08 132.575 352.375 132.17 350.98 131.75C351.01 132.455 351.01 132.455 351.01 132.725C351.01 133.46 350.665 133.94 349.945 134.21C349.585 134.345 348.955 134.435 348.415 134.435C346.84 134.435 345.85 133.805 345.85 132.8C345.85 132.08 346.36 131.51 347.305 131.15C347.89 130.925 348.7 130.79 349.48 130.79C349.6 130.79 349.795 130.79 350.05 130.805C349.96 124.775 349.96 124.775 349.84 123.77C349.735 122.9 349.51 122.66 348.535 122.495ZM350.035 131.525C349.555 131.495 349.375 131.495 348.895 131.495C347.35 131.495 346.24 132.02 346.24 132.77C346.24 133.37 346.855 133.715 347.92 133.715C348.79 133.715 349.51 133.475 349.795 133.1C349.99 132.86 350.035 132.545 350.035 131.525Z" fill="white"/>
</g>
<defs>
<filter id="filter0_d_475_2" x="0.400391" y="52.4004" width="461.305" height="37.3594" filterUnits="userSpaceOnUse" color-interpolation-filters="sRGB">
<feFlood flood-opacity="0" result="BackgroundImageFix"/>
<feColorMatrix in="SourceAlpha" type="matrix" values="0 0 0 0 0 0 0 0 0 0 0 0 0 0 0 0 0 0 127 0" result="hardAlpha"/>
<feOffset/>
<feGaussianBlur stdDeviation="2"/>
<feComposite in2="hardAlpha" operator="out"/>
<feColorMatrix type="matrix" values="0 0 0 0 0 0 0 0 0 0 0 0 0 0 0 0 0 0 0.5 0"/>
<feBlend mode="normal" in2="BackgroundImageFix" result="effect1_dropShadow_475_2"/>
<feBlend mode="normal" in="SourceGraphic" in2="effect1_dropShadow_475_2" result="shape"/>
</filter>
<filter id="filter1_d_475_2" x="114.936" y="2.61816" width="231.291" height="23.2822" filterUnits="userSpaceOnUse" color-interpolation-filters="sRGB">
<feFlood flood-opacity="0" result="BackgroundImageFix"/>
<feColorMatrix in="SourceAlpha" type="matrix" values="0 0 0 0 0 0 0 0 0 0 0 0 0 0 0 0 0 0 127 0" result="hardAlpha"/>
<feOffset/>
<feGaussianBlur stdDeviation="2"/>
<feComposite in2="hardAlpha" operator="out"/>
<feColorMatrix type="matrix" values="0 0 0 0 0 0 0 0 0 0 0 0 0 0 0 0 0 0 0.5 0"/>
<feBlend mode="normal" in2="BackgroundImageFix" result="effect1_dropShadow_475_2"/>
<feBlend mode="normal" in="SourceGraphic" in2="effect1_dropShadow_475_2" result="shape"/>
</filter>
<filter id="filter2_d_475_2" x="101.055" y="116.995" width="257.961" height="22.2646" filterUnits="userSpaceOnUse" color-interpolation-filters="sRGB">
<feFlood flood-opacity="0" result="BackgroundImageFix"/>
<feColorMatrix in="SourceAlpha" type="matrix" values="0 0 0 0 0 0 0 0 0 0 0 0 0 0 0 0 0 0 127 0" result="hardAlpha"/>
<feOffset/>
<feGaussianBlur stdDeviation="2"/>
<feComposite in2="hardAlpha" operator="out"/>
<feColorMatrix type="matrix" values="0 0 0 0 0 0 0 0 0 0 0 0 0 0 0 0 0 0 0.5 0"/>
<feBlend mode="normal" in2="BackgroundImageFix" result="effect1_dropShadow_475_2"/>
<feBlend mode="normal" in="SourceGraphic" in2="effect1_dropShadow_475_2" result="shape"/>
</filter>
</defs>
</svg>
