<svg width="365" height="124" viewBox="0 0 365 124" fill="none" xmlns="http://www.w3.org/2000/svg">
<path d="M171.5 24.4998C167.5 24.0998 155.5 25.6664 150 26.4998V41.5C155 40.8333 165.8 39.5 169 39.5C173 39.5 177.5 45 181.5 45.5C184.7 45.9 197.5 43 203.5 41.5L207 24.4998C199.833 25.9998 184.7 29.1 181.5 29.5C177.5 30 176.5 24.9998 171.5 24.4998Z" fill="black"/>
<path d="M43.8732 105L29 9H47.0282L61 105H43.8732Z" fill="black"/>
<path d="M98 81V69.5C101.167 70 106.4 71 108 71C111 71 117.5 68 120.5 68C122.9 68 129.5 70.1667 132.5 71.5L132 105C127.667 103.667 121 102 116.5 102C114 102 106.5 104 104.5 104.5C102.9 104.9 99.5 104.333 98 104V94C99.8333 94.3333 101 95 103.5 95C106.5 95 111 92.5 113.5 92.5C116.5 92.5 119.667 93.3333 121.5 94V92C119.167 91 117 90 113 90C109.5 90 107.5 93 103.5 93C100.5 93 99.3333 92 98 91.5V83C98.6667 83.5 102 84.5 103 84.5C106.5 84.5 110.5 82.5 113 82C115 81.6 119.5 83.1667 121.5 83.5V81.5C119 80.5 115.5 80 113 80C109.5 80 106 82 103.5 82C101.5 82 98.8333 81.3333 98 81Z" fill="black"/>
<path d="M10.5672 49L9 31.7826C14.2239 29.1739 17.8806 25.8348 22.0597 27.087C23.8099 27.6114 30.2777 29.5961 34.0746 30.2174C41.6103 31.4505 48.0337 32.2175 50.2687 31.2609C53.9254 29.6957 56.0149 25 64.3731 25C71.0597 25 76.7363 29.1739 77.4328 29.1739L79 45.3478C74.8209 43.9565 72.7313 42.2174 68.0299 42.7391C65.9531 42.9696 58.1045 46.913 54.4478 47.9565C52.4386 48.5299 39.2985 49 36.1642 47.9565C32.9909 46.9001 26.7612 43.7826 22.0597 44.3043C18.2985 44.7217 11.6119 46.7391 10.5672 49Z" fill="black"/>
<path d="M7.92537 74L6 59.6522C12.4179 57.4783 16.9104 54.6957 22.0448 55.7391C24.195 56.1761 32.1412 57.8301 36.806 58.3478C46.0641 59.3754 53.9557 60.0146 56.7015 59.2174C61.194 57.913 63.7612 54 74.0299 54C82.2448 54 89.2189 57.4783 90.0746 57.4783L92 70.9565C86.8657 69.7971 84.2985 68.3478 78.5224 68.7826C75.9709 68.9747 66.3284 72.2609 61.8358 73.1304C59.3674 73.6082 43.2239 74 39.3731 73.1304C35.4746 72.2501 27.8209 69.6522 22.0448 70.087C17.4239 70.4348 9.20896 72.1159 7.92537 74Z" fill="black"/>
<path d="M146.5 37.5C148.1 34.3 149.667 20.8333 150.5 14H166C165.5 19 164.1 30.7 162.5 37.5C160.9 44.3 149.833 58 144.5 64L133 57C136.833 51.8333 144.9 40.7 146.5 37.5Z" fill="black"/>
<path d="M182.5 60C185.5 53 191.167 30.8333 192 24H207.5C207 29 203.5 49.5 199.5 61C197.205 67.598 176.833 99 171.5 105L157.5 94C161.333 88.8333 179.5 67 182.5 60Z" fill="black"/>
<path d="M220 55.1753L226.162 36C234.788 39.9175 247.727 43.1478 257.586 50.8454C267.444 58.543 275.044 72.0825 281 79.9175L266.212 96C261.899 89.4021 255.121 76.8247 244.646 68.7835C237.253 63.1073 227.394 58.8866 220 55.1753Z" fill="black"/>
<path d="M254.951 34.8692C256.131 31.692 261.523 24.54 264.071 21.3612L280.86 28.0149C278.512 30.3413 273.576 36.017 272.251 41.6434C269.613 52.8446 268.236 60.7713 260.78 69.7142C257.77 73.3242 241.821 81.4446 236.133 84.9637C231.583 87.779 219.29 99.172 215.367 104.367L201.529 89.7699C205.292 85.2573 214.375 76.4914 219.527 72.9541C225.967 68.5325 245.467 59.089 247.845 55.87C250.223 52.6509 253.476 38.8406 254.951 34.8692Z" fill="black"/>
<path d="M300.855 46.9153C298.003 46.1208 293.065 45.8385 290.534 46.2892L291.317 33.3881C293.67 33.013 298.377 32.2626 303.991 33.6391C308.008 34.624 314.609 37.9088 317.338 39.8872L311.926 52.2484C309.424 50.8018 303.707 47.7099 300.855 46.9153Z" fill="black"/>
<path d="M294.69 102L286 84.0948C297.587 74.8535 308.595 73.1207 321.341 62.7241C330.853 54.9654 338.336 40.3908 341.04 35L359 38.4655C355.524 48.8621 349.151 62.7241 335.246 78.8966C328.603 86.6228 304.926 96.9943 294.69 102Z" fill="black"/>
</svg>
